<?xml version="1.0" encoding="UTF-8"?><svg id="Layer_1" xmlns="http://www.w3.org/2000/svg" viewBox="0 0 600 600"><defs><style>.cls-1{fill:#fff;}</style></defs><path class="cls-1" d="m112.75,65.05l-.21,2.83c-.14.5-.42.94-.84,1.32-.42.38-.91.57-1.47.57h-27.25c-.42,0-.77.25-1.05.75l-16.77,122.8c0,.5-.21.94-.63,1.32s-.98.57-1.68.57h-3.77c-1.4,0-1.96-.63-1.68-1.89l16.56-122.8c.14-.12.14-.28,0-.47-.14-.19-.35-.28-.63-.28h-25.36c-1.26,0-1.89-.63-1.89-1.89l.42-2.83c.28-1.26,1.05-1.89,2.31-1.89h62.25c1.4,0,1.96.63,1.68,1.89Z"/><path class="cls-1" d="m125.32,193.32l17.61-128.27c.28-1.26,1.05-1.89,2.31-1.89h3.77c1.26,0,1.89.63,1.89,1.89l-17.61,128.27c-.28,1.26-1.05,1.89-2.31,1.89h-3.77c-1.26,0-1.89-.63-1.89-1.89Z"/><path class="cls-1" d="m241.95,70.52c4.68,5.16,7.02,12.07,7.02,20.75,0,2.89-.14,5.16-.42,6.79-1.4,10.31-5.34,18.64-11.84,24.99-6.5,6.35-14.29,9.53-23.37,9.53h-23.47c-.28,0-.52.07-.73.19-.21.13-.31.31-.31.57l-8.17,59.98c-.28,1.26-1.05,1.89-2.31,1.89h-3.77c-1.26,0-1.89-.63-1.89-1.89l17.61-128.65c.28-1.26,1.05-1.89,2.31-1.89h30.18c8.1,0,14.49,2.58,19.18,7.73Zm-10.58,47.91c5.03-5.16,8.1-11.95,9.22-20.37.28-2.76.42-4.78.42-6.04,0-7.04-1.78-12.54-5.34-16.51s-8.49-5.94-14.78-5.94h-22.43c-.28,0-.52.06-.73.19-.21.13-.31.32-.31.57l-7.55,55.08c0,.5.28.76.84.76h22.43c7.13,0,13.2-2.58,18.23-7.73Z"/><path class="cls-1" d="m302.97,189.36c-4.89-4.9-7.34-11.44-7.34-19.62,0-1.13.14-3.08.42-5.85l.42-3.58c.28-1.26,1.05-1.89,2.31-1.89h3.56c.7,0,1.22.19,1.57.57.35.38.45.82.31,1.32l-.42,3.39c-.28,2.26-.42,3.96-.42,5.09,0,6.54,1.81,11.76,5.45,15.66,3.63,3.9,8.52,5.85,14.67,5.85,4.89,0,9.43-1.26,13.62-3.77,4.19-2.51,7.54-6.04,10.06-10.56,2.51-4.53,3.77-9.68,3.77-15.47,0-4.15-.88-7.76-2.62-10.85-1.75-3.08-3.95-5.78-6.6-8.11-2.66-2.32-6.92-5.75-12.78-10.28-5.59-4.4-9.96-8.05-13.1-10.94-3.14-2.89-5.7-6.22-7.65-10-1.96-3.77-2.93-8.11-2.93-13.02,0-1,.14-2.77.42-5.28,1.39-9.43,5.24-16.85,11.53-22.26,6.29-5.41,13.9-8.11,22.85-8.11,8.38,0,15.02,2.45,19.91,7.36,4.89,4.9,7.34,11.51,7.34,19.81,0,1.26-.14,3.27-.42,6.04l-.63,4.72c0,.5-.21.94-.63,1.32s-.98.57-1.68.57h-3.77c-1.4,0-1.96-.63-1.68-1.89l.63-4.72c.28-2.26.42-3.9.42-4.9,0-6.66-1.85-11.98-5.55-15.94-3.7-3.96-8.63-5.94-14.78-5.94-6.57,0-12.26,2.14-17.08,6.41-4.82,4.28-7.72,10.25-8.7,17.92-.14,1.01-.21,2.39-.21,4.15,0,5.28,1.54,9.81,4.61,13.58,3.07,3.77,8.52,8.61,16.35,14.52,6.42,4.9,11.32,8.9,14.67,11.98,3.35,3.08,5.94,6.32,7.75,9.71,1.81,3.39,2.72,7.29,2.72,11.7,0,1.01-.14,2.77-.42,5.28-1.4,10.06-5.45,18.14-12.15,24.24-6.71,6.1-14.67,9.15-23.89,9.15-8.38,0-15.02-2.45-19.91-7.36Z"/><path class="cls-1" d="m459.53,69.76h-49.04c-.14,0-.31.06-.52.19-.21.13-.31.31-.31.57l-7.34,54.51c-.14.13-.14.28,0,.47.14.19.35.28.63.28h32.07c1.26,0,1.89.63,1.89,1.89l-.42,2.83c-.28,1.26-1.05,1.89-2.31,1.89h-32.07c-.42,0-.77.25-1.05.75l-7.34,54.7c-.14.13-.14.28,0,.47.14.19.35.28.63.28h49.04c1.4,0,1.96.63,1.68,1.89l-.42,2.83c0,.5-.21.94-.63,1.32s-.91.57-1.47.57h-55.75c-1.26,0-1.89-.63-1.89-1.89l17.61-128.27c.28-1.26,1.05-1.89,2.31-1.89h55.75c.56,0,1.01.19,1.36.57.35.38.45.82.31,1.32l-.42,2.83c-.28,1.26-1.05,1.89-2.31,1.89Z"/><path class="cls-1" d="m551.12,69.76h-49.04c-.14,0-.31.06-.52.19-.21.13-.31.31-.31.57l-7.34,54.51c-.14.13-.14.28,0,.47.14.19.35.28.63.28h32.07c1.26,0,1.89.63,1.89,1.89l-.42,2.83c-.28,1.26-1.05,1.89-2.31,1.89h-32.07c-.42,0-.77.25-1.05.75l-7.34,54.7c-.14.13-.14.28,0,.47.14.19.35.28.63.28h49.04c1.4,0,1.96.63,1.68,1.89l-.42,2.83c0,.5-.21.94-.63,1.32s-.91.57-1.47.57h-55.75c-1.26,0-1.89-.63-1.89-1.89l17.61-128.27c.28-1.26,1.05-1.89,2.31-1.89h55.75c.56,0,1.01.19,1.36.57.35.38.45.82.31,1.32l-.42,2.83c-.28,1.26-1.05,1.89-2.31,1.89Z"/><path class="cls-1" d="m166.17,535.49l-9.92-39.35c0-.42-.2-.74-.59-.95-.4-.21-.86-.32-1.39-.32h-71.81c-.53,0-.99.11-1.39.32-.4.21-.59.53-.59.95l-9.92,39.35c-.27,1.9-1.72,2.86-4.36,2.86h-20.23c-1.33,0-2.32-.32-2.98-.95-.66-.63-.86-1.48-.59-2.54l59.51-215.81c.53-1.9,1.98-2.86,4.36-2.86h23.8c2.64,0,4.1.95,4.36,2.86l60.3,215.81v.63c0,1.9-1.19,2.86-3.57,2.86h-20.63c-2.38,0-3.84-.95-4.36-2.86Zm-79.34-59.03h62.68c.79,0,1.19-.42,1.19-1.27l-31.74-124.73c-.27-.63-.53-.95-.79-.95s-.53.32-.79.95l-31.74,124.73c0,.85.4,1.27,1.19,1.27Z"/><path class="cls-1" d="m348.65,535.81l-40.46-98.07c-.27-.63-.79-.95-1.59-.95h-34.51c-1.06,0-1.59.43-1.59,1.27v97.12c0,2.12-1.33,3.17-3.97,3.17h-20.23c-2.65,0-3.97-1.06-3.97-3.17v-215.81c0-2.11,1.32-3.17,3.97-3.17h65.46c19.3,0,34.91,5.66,46.81,16.98,11.9,11.32,17.85,26.08,17.85,44.27,0,13.76-3.71,25.6-11.11,35.55-7.41,9.95-17.46,16.93-30.15,20.95-1.06.21-1.46.74-1.19,1.59l43.24,99.34.4,1.27c0,1.48-1.19,2.22-3.57,2.22h-20.63c-2.38,0-3.97-.84-4.76-2.54Zm-78.15-198.67v80.29c0,.85.53,1.27,1.59,1.27h35.7c12.16,0,21.95-3.75,29.36-11.27,7.4-7.51,11.11-17.51,11.11-29.99s-3.71-22.53-11.11-30.15c-7.41-7.62-17.19-11.43-29.36-11.43h-35.7c-1.06,0-1.59.43-1.59,1.27Z"/><path class="cls-1" d="m557.72,319.36v13.33c0,2.12-1.33,3.17-3.97,3.17h-52.37c-1.06,0-1.59.43-1.59,1.27v198.04c0,2.12-1.33,3.17-3.97,3.17h-20.23c-2.65,0-3.97-1.06-3.97-3.17v-198.04c0-.84-.53-1.27-1.59-1.27h-49.19c-2.65,0-3.97-1.06-3.97-3.17v-13.33c0-2.11,1.32-3.17,3.97-3.17h132.9c2.64,0,3.97,1.06,3.97,3.17Z"/><circle class="cls-1" cx="48.45" cy="253.37" r="13.9"/><circle class="cls-1" cx="87.15" cy="253.37" r="13.9"/><circle class="cls-1" cx="125.85" cy="253.37" r="13.9"/><circle class="cls-1" cx="164.55" cy="253.37" r="13.9"/><circle class="cls-1" cx="203.25" cy="253.37" r="13.9"/><circle class="cls-1" cx="241.95" cy="253.37" r="13.9"/><circle class="cls-1" cx="280.65" cy="253.37" r="13.9"/><circle class="cls-1" cx="319.35" cy="253.37" r="13.9"/><circle class="cls-1" cx="358.05" cy="253.37" r="13.9"/><circle class="cls-1" cx="396.75" cy="253.37" r="13.9"/><circle class="cls-1" cx="435.45" cy="253.37" r="13.9"/><circle class="cls-1" cx="474.15" cy="253.37" r="13.9"/><circle class="cls-1" cx="512.85" cy="253.37" r="13.9"/><circle class="cls-1" cx="551.55" cy="253.37" r="13.9"/></svg>